<mxfile host="app.diagrams.net" modified="2024-01-19T21:50:11.782Z" agent="Mozilla/5.0 (Windows NT 10.0; Win64; x64) AppleWebKit/537.36 (KHTML, like Gecko) Chrome/120.0.0.0 Safari/537.36" etag="ILzSOud3nyTxVZfI9Ub3" version="22.1.21" type="github">
  <diagram name="Page-1" id="KjSh-uI0YNBVL9A5lcSU">
    <mxGraphModel dx="735" dy="500" grid="1" gridSize="10" guides="1" tooltips="1" connect="1" arrows="1" fold="1" page="1" pageScale="1" pageWidth="850" pageHeight="1100" math="0" shadow="0">
      <root>
        <mxCell id="0" />
        <mxCell id="1" parent="0" />
        <mxCell id="OapXZm6r6GFABxNmLe1w-3" value="" style="edgeStyle=orthogonalEdgeStyle;rounded=0;orthogonalLoop=1;jettySize=auto;html=1;" edge="1" parent="1" source="OapXZm6r6GFABxNmLe1w-1" target="OapXZm6r6GFABxNmLe1w-2">
          <mxGeometry relative="1" as="geometry" />
        </mxCell>
        <mxCell id="OapXZm6r6GFABxNmLe1w-5" value="" style="edgeStyle=orthogonalEdgeStyle;rounded=0;orthogonalLoop=1;jettySize=auto;html=1;" edge="1" parent="1" source="OapXZm6r6GFABxNmLe1w-1" target="OapXZm6r6GFABxNmLe1w-4">
          <mxGeometry relative="1" as="geometry" />
        </mxCell>
        <mxCell id="OapXZm6r6GFABxNmLe1w-1" value="Main" style="strokeWidth=2;html=1;shape=mxgraph.flowchart.start_1;whiteSpace=wrap;fillColor=#d5e8d4;strokeColor=#82b366;" vertex="1" parent="1">
          <mxGeometry x="149" y="30" width="100" height="60" as="geometry" />
        </mxCell>
        <mxCell id="OapXZm6r6GFABxNmLe1w-11" value="" style="edgeStyle=orthogonalEdgeStyle;rounded=0;orthogonalLoop=1;jettySize=auto;html=1;entryX=0;entryY=0.5;entryDx=0;entryDy=0;entryPerimeter=0;" edge="1" parent="1" source="OapXZm6r6GFABxNmLe1w-2" target="OapXZm6r6GFABxNmLe1w-1">
          <mxGeometry relative="1" as="geometry">
            <mxPoint x="29" y="50" as="targetPoint" />
            <Array as="points">
              <mxPoint x="30" y="200" />
              <mxPoint x="30" y="60" />
            </Array>
          </mxGeometry>
        </mxCell>
        <mxCell id="OapXZm6r6GFABxNmLe1w-2" value="Delay/Flash Red" style="shape=parallelogram;perimeter=parallelogramPerimeter;whiteSpace=wrap;html=1;fixedSize=1;fillColor=#fff2cc;strokeColor=#d6b656;strokeWidth=2;" vertex="1" parent="1">
          <mxGeometry x="69" y="170" width="120" height="60" as="geometry" />
        </mxCell>
        <mxCell id="OapXZm6r6GFABxNmLe1w-9" style="edgeStyle=orthogonalEdgeStyle;rounded=0;orthogonalLoop=1;jettySize=auto;html=1;" edge="1" parent="1" target="OapXZm6r6GFABxNmLe1w-1">
          <mxGeometry relative="1" as="geometry">
            <mxPoint x="259" y="60" as="targetPoint" />
            <mxPoint x="259" y="200" as="sourcePoint" />
            <Array as="points">
              <mxPoint x="369" y="200" />
              <mxPoint x="369" y="60" />
            </Array>
          </mxGeometry>
        </mxCell>
        <mxCell id="OapXZm6r6GFABxNmLe1w-4" value="Green_LED_Toggle" style="shape=parallelogram;perimeter=parallelogramPerimeter;whiteSpace=wrap;html=1;fixedSize=1;fillColor=#fff2cc;strokeColor=#d6b656;strokeWidth=2;" vertex="1" parent="1">
          <mxGeometry x="209" y="170" width="140" height="60" as="geometry" />
        </mxCell>
        <mxCell id="OapXZm6r6GFABxNmLe1w-13" value="Init:&amp;nbsp;&lt;br&gt;P6.6 as Output&lt;br&gt;TimberB0:&lt;br&gt;ACLK&lt;br&gt;MC_UP&lt;br&gt;CCR0=32768&lt;br&gt;enable CCIFG" style="strokeWidth=2;html=1;shape=mxgraph.flowchart.document2;whiteSpace=wrap;size=0.25;fillColor=#dae8fc;strokeColor=#6c8ebf;" vertex="1" parent="1">
          <mxGeometry x="440" y="30" width="100" height="190" as="geometry" />
        </mxCell>
        <mxCell id="OapXZm6r6GFABxNmLe1w-20" value="" style="edgeStyle=orthogonalEdgeStyle;rounded=0;orthogonalLoop=1;jettySize=auto;html=1;" edge="1" parent="1" source="OapXZm6r6GFABxNmLe1w-14" target="OapXZm6r6GFABxNmLe1w-15">
          <mxGeometry relative="1" as="geometry" />
        </mxCell>
        <mxCell id="OapXZm6r6GFABxNmLe1w-14" value="TimberB0" style="strokeWidth=2;html=1;shape=mxgraph.flowchart.start_1;whiteSpace=wrap;fillColor=#f5f5f5;gradientColor=#b3b3b3;strokeColor=#666666;" vertex="1" parent="1">
          <mxGeometry x="600" y="30" width="100" height="60" as="geometry" />
        </mxCell>
        <mxCell id="OapXZm6r6GFABxNmLe1w-17" value="" style="edgeStyle=orthogonalEdgeStyle;rounded=0;orthogonalLoop=1;jettySize=auto;html=1;fillColor=#dae8fc;gradientColor=#7ea6e0;strokeColor=#6c8ebf;" edge="1" parent="1" source="OapXZm6r6GFABxNmLe1w-15" target="OapXZm6r6GFABxNmLe1w-16">
          <mxGeometry relative="1" as="geometry" />
        </mxCell>
        <mxCell id="OapXZm6r6GFABxNmLe1w-15" value="&amp;nbsp;Toggle Green LED" style="rounded=1;whiteSpace=wrap;html=1;absoluteArcSize=1;arcSize=14;strokeWidth=2;fillColor=#dae8fc;gradientColor=#7ea6e0;strokeColor=#6c8ebf;" vertex="1" parent="1">
          <mxGeometry x="605" y="120" width="90" height="40" as="geometry" />
        </mxCell>
        <mxCell id="OapXZm6r6GFABxNmLe1w-29" value="" style="edgeStyle=orthogonalEdgeStyle;rounded=0;orthogonalLoop=1;jettySize=auto;html=1;" edge="1" parent="1" source="OapXZm6r6GFABxNmLe1w-16" target="OapXZm6r6GFABxNmLe1w-28">
          <mxGeometry relative="1" as="geometry" />
        </mxCell>
        <mxCell id="OapXZm6r6GFABxNmLe1w-16" value="Clear Flag" style="rounded=1;whiteSpace=wrap;html=1;absoluteArcSize=1;arcSize=14;strokeWidth=2;fillColor=#dae8fc;gradientColor=#7ea6e0;strokeColor=#6c8ebf;" vertex="1" parent="1">
          <mxGeometry x="605" y="190" width="90" height="40" as="geometry" />
        </mxCell>
        <mxCell id="OapXZm6r6GFABxNmLe1w-22" style="edgeStyle=orthogonalEdgeStyle;rounded=0;orthogonalLoop=1;jettySize=auto;html=1;entryX=0;entryY=0.5;entryDx=0;entryDy=0;entryPerimeter=0;" edge="1" parent="1" source="OapXZm6r6GFABxNmLe1w-13" target="OapXZm6r6GFABxNmLe1w-14">
          <mxGeometry relative="1" as="geometry" />
        </mxCell>
        <mxCell id="OapXZm6r6GFABxNmLe1w-28" value="Return" style="strokeWidth=2;html=1;shape=mxgraph.flowchart.start_1;whiteSpace=wrap;fillColor=#f5f5f5;strokeColor=#666666;gradientColor=#b3b3b3;" vertex="1" parent="1">
          <mxGeometry x="605" y="260" width="100" height="60" as="geometry" />
        </mxCell>
        <mxCell id="OapXZm6r6GFABxNmLe1w-30" value="Fig. 1 Flash Red/Green Routine" style="rounded=1;whiteSpace=wrap;html=1;absoluteArcSize=1;arcSize=0;strokeWidth=2;" vertex="1" parent="1">
          <mxGeometry x="140" y="250" width="120" height="30" as="geometry" />
        </mxCell>
        <mxCell id="OapXZm6r6GFABxNmLe1w-31" value="Fig. 2 Timer ISR and Toggle Green" style="rounded=1;whiteSpace=wrap;html=1;absoluteArcSize=1;arcSize=0;strokeWidth=2;" vertex="1" parent="1">
          <mxGeometry x="540" y="340" width="120" height="30" as="geometry" />
        </mxCell>
      </root>
    </mxGraphModel>
  </diagram>
</mxfile>
